<svg xmlns="http://www.w3.org/2000/svg"  viewBox="0 0 24 24" width="96px" height="96px"><path d="M 17.494141 3.0800781 C 16.426695 3.0082461 15.557031 3.508 14.878906 4.03125 C 15.557906 4.21025 16.051063 4.5797656 16.414062 5.0097656 C 16.443062 5.0087656 16.471 5 16.5 5 C 16.741 5 17.425219 5.1472656 17.449219 5.1972656 C 17.604219 5.2622656 17.756531 5.3386406 17.894531 5.4316406 C 18.332531 5.2246406 18.857625 5.0655312 19.515625 5.0195312 C 19.104625 3.5565312 18.305891 3.2214844 17.962891 3.1464844 C 17.802266 3.1112344 17.646633 3.0903398 17.494141 3.0800781 z M 4.2324219 3.9726562 C 4.0506445 3.9720332 3.8729688 3.984625 3.6992188 4.015625 C 3.4022188 4.067625 2.9592969 4.2517031 2.5292969 5.2207031 C 2.2682969 5.8087031 1.5592969 7.7914687 2.6542969 9.9804688 C 2.6132969 10.074469 2.5691563 10.167578 2.5351562 10.267578 C 2.5281562 10.288578 2.5323437 10.309078 2.5273438 10.330078 C 2.3153437 10.874078 2.1688437 11.429094 2.0898438 11.996094 C 1.5368438 11.994094 0.789 11.992188 0 11.992188 L 0 13.992188 C 0.786 13.992188 1.5310312 13.994094 2.0820312 13.996094 C 2.1730313 14.690094 2.3595781 15.333016 2.6425781 15.916016 L 0.93945312 17.525391 L 2.3125 18.978516 L 3.8320312 17.542969 C 5.4770313 19.134969 8.1915938 20 11.808594 20 C 15.486594 20 17.956344 19.314406 19.402344 17.816406 L 20.542969 18.957031 L 21.957031 17.542969 L 20.496094 16.082031 C 20.735094 15.466031 20.887078 14.772094 20.955078 13.996094 C 21.502078 13.994094 22.23 13.992188 23 13.992188 L 23 11.992188 C 22.215 11.992188 21.471922 11.994094 20.919922 11.996094 C 20.847922 11.535094 20.717922 11.082766 20.544922 10.634766 C 20.107922 10.873766 19.586906 11.009766 19.003906 11.009766 C 18.891906 11.009766 18.779922 11.004094 18.669922 10.996094 C 18.614922 10.992094 18.555047 10.973844 18.498047 10.964844 C 18.822047 11.635844 19 12.309 19 13 C 19 16.243 17.854594 18 11.808594 18 C 8.2515937 18 4.0117188 17.133906 4.0117188 13.003906 C 4.0117188 12.122906 4.2301563 11.260359 4.6601562 10.443359 C 4.9921562 9.9153594 5.4577969 9.5645937 5.4667969 9.5585938 C 5.9107969 9.2345938 6.0095 8.6110625 5.6875 8.1640625 C 5.3615 7.7150625 4.7350625 7.6144531 4.2890625 7.9394531 C 4.2660625 7.9564531 4.2010938 8.0062656 4.1210938 8.0722656 C 3.9650937 7.1462656 4.1978594 6.3606094 4.3808594 5.9746094 C 5.2218594 6.0466094 6.5023906 6.724 7.0253906 7 L 7.7089844 7.3535156 L 8.1386719 7.171875 C 9.0976719 6.768875 9.993 6.5 11.25 6.5 C 11.451 6.5 11.726344 6.5084375 12.027344 6.5234375 C 12.161344 5.5494375 12.480609 4.9453594 12.849609 4.5683594 C 12.214609 4.5233594 11.596 4.5 11.25 4.5 C 10.034 4.5 9.0076406 4.6913906 7.8066406 5.1503906 C 6.9263906 4.6875156 5.5048633 3.9770176 4.2324219 3.9726562 z M 14.199219 4.9570312 C 13.726297 4.9921406 13.1665 5.3445 13 6.75 C 12.985 6.875 12.699375 8.9454219 14.234375 8.9824219 C 14.650375 8.9924219 14.908969 8.8842031 15.417969 8.5332031 C 15.491969 8.6112031 15.571156 8.6831406 15.660156 8.7441406 C 15.900156 8.9061406 16.189 9 16.5 9 C 16.745 9 16.971781 8.9360312 17.175781 8.8320312 C 17.610781 9.5920312 18.268 9.961 18.75 10 C 19.456 10.057 20.239141 9.8881406 20.619141 9.2441406 C 21.499141 7.7501406 20.512 6 19.875 6 C 18.824 6 18.211562 6.3348281 17.726562 6.6738281 C 17.557562 6.4248281 17.332828 6.2155156 17.048828 6.1035156 C 16.879828 6.0375156 16.694 6 16.5 6 C 16.307 6 16.124078 6.0394688 15.955078 6.1054688 C 15.686078 5.6174688 15.284 5.173 14.625 5 C 14.50425 4.96825 14.356859 4.9453281 14.199219 4.9570312 z M 7 12 C 6.448 12 6 12.444188 6 12.992188 C 6 13.540188 6.448 13.984375 7 13.984375 C 7.552 13.984375 8 13.540188 8 12.992188 C 8 12.444187 7.552 12 7 12 z M 16 12 A 1 1 0 0 0 16 14 A 1 1 0 0 0 16 12 z M 11.509766 14.021484 C 10.675766 14.021484 10 14.465719 10 15.011719 C 10 15.557719 10.675766 16 11.509766 16 C 12.343766 16 13.019531 15.557719 13.019531 15.011719 C 13.018531 14.465719 12.342766 14.021484 11.509766 14.021484 z"/></svg>